<svg width="89" height="98" viewBox="0 0 89 98" fill="none" xmlns="http://www.w3.org/2000/svg">
<path d="M17.2695 87.425C36.4833 87.425 49.6778 97.3778 58.9361 97.3778C68.1945 97.3778 87.6389 92.0556 87.6389 49.4639C87.6389 6.87222 61.4806 0.619446 51.2972 0.619446C3.61113 0.619446 -16.7583 87.425 17.2695 87.425Z" fill="#EFEFEF"/>
<path d="M82.8005 20.3403L84.7647 18.3761L88.6931 22.3045L86.7289 24.2686L82.8005 20.3403Z" fill="#A4AFC1"/>
<path d="M71.5079 9.04584L73.4721 7.08165L77.4005 11.01L75.4363 12.9742L71.5079 9.04584Z" fill="#A4AFC1"/>
<path d="M82.8018 11.5027L86.7302 7.57435L88.6944 9.53853L84.766 13.4669L82.8018 11.5027Z" fill="#A4AFC1"/>
<path d="M48.861 71.9166C48.861 71.9166 49.5416 76.8194 52.9722 80.25H53.0277H34.9722C38.4444 76.7777 39.0833 71.9166 39.0833 71.9166H48.861Z" fill="#EE4248"/>
<path d="M72.4722 28.8611C74 28.8611 75.25 30.1111 75.25 31.6389V62.1945H12.75V31.6389C12.75 30.1111 14 28.8611 15.5278 28.8611H72.4722Z" fill="#F3F3F1"/>
<path d="M15.5278 71.9167H72.4722C74.0056 71.9167 75.25 70.6722 75.25 69.1389V62.1945H12.75V69.1389C12.75 70.6722 13.9944 71.9167 15.5278 71.9167Z" fill="#EE4248"/>
<path d="M63.4445 38.5833C67.6634 38.5833 71.0834 35.1633 71.0834 30.9444C71.0834 26.7256 67.6634 23.3055 63.4445 23.3055C59.2257 23.3055 55.8057 26.7256 55.8057 30.9444C55.8057 35.1633 59.2257 38.5833 63.4445 38.5833Z" fill="#EE4248"/>
<path d="M26.7889 55.25C23.6306 55.25 21.0834 52.8306 21.0834 49.8333C21.0834 46.8361 23.6334 44.4167 26.7889 44.4167H26.8917C27.5 40.325 31.1917 37.1945 35.6667 37.1945C39.2167 37.1945 42.2862 39.1695 43.6945 42.0333C47.3584 42.225 50.2501 45.1028 50.2501 48.6306C50.2501 52.2889 47.1306 55.25 43.2751 55.25H26.7889Z" fill="#EE4248"/>
<path d="M39.0833 71.9166C39.0833 71.9166 38.4444 76.7777 34.9722 80.25H41.2222C44.6944 76.7777 45.3333 71.9166 45.3333 71.9166H39.0833Z" fill="#EE4248"/>
<path d="M19 69.1389V62.1945H12.75V69.1389C12.75 70.6722 13.9944 71.9167 15.5278 71.9167H21.7778C20.2444 71.9167 19 70.6722 19 69.1389Z" fill="#EE4248"/>
<path d="M62.0557 30.9444C62.0557 27.8417 63.914 25.1833 66.5696 23.9889C65.614 23.5583 64.5612 23.3055 63.4446 23.3055C59.2251 23.3055 55.8057 26.725 55.8057 30.9444C55.8057 35.1639 59.2251 38.5833 63.4446 38.5833C64.5612 38.5833 65.614 38.3305 66.5696 37.9C63.914 36.7055 62.0557 34.0472 62.0557 30.9444Z" fill="#EE4248"/>
<path d="M27.3334 49.8333C27.3334 46.8361 29.8834 44.4167 33.0389 44.4167H33.1417C33.6 41.3417 35.7973 38.8111 38.7612 37.7417C37.7945 37.4 36.7584 37.1945 35.6667 37.1945C31.1889 37.1945 27.5 40.325 26.8917 44.4167H26.7889C23.6306 44.4167 21.0834 46.8361 21.0834 49.8333C21.0834 52.8306 23.6334 55.25 26.7889 55.25H33.0389C29.8834 55.25 27.3334 52.8306 27.3334 49.8333Z" fill="#EE4248"/>
<path d="M21.7778 28.8611H15.5278C14 28.8611 12.75 30.1111 12.75 31.6389V62.1945H19V31.6389C19 30.1111 20.25 28.8611 21.7778 28.8611Z" fill="#D5DBE1"/>
<path d="M72.4722 74H15.5277C12.8472 74 10.6666 71.8195 10.6666 69.1389V31.6389C10.6666 28.9583 12.8472 26.7778 15.5277 26.7778H44V30.9444H15.5277C15.15 30.9444 14.8333 31.2611 14.8333 31.6389V69.1389C14.8333 69.5167 15.15 69.8333 15.5277 69.8333H72.4722C72.85 69.8333 73.1666 69.5167 73.1666 69.1389V46.2222H77.3333V69.1389C77.3333 71.8195 75.1527 74 72.4722 74Z" fill="black"/>
<path d="M12.75 60.1111H75.25V64.2777H12.75V60.1111Z" fill="black"/>
<path d="M53.0277 82.3334H34.9721C34.1277 82.3334 33.3694 81.825 33.0471 81.0473C32.7277 80.2695 32.9027 79.3723 33.4999 78.7778C36.4055 75.8723 37.0166 71.6806 37.0221 71.6389L41.1499 72.1889C41.1305 72.3528 40.7416 75.15 39.086 78.1667H48.8694C47.2277 75.1667 46.8221 72.3667 46.7971 72.2056L50.9221 71.625C50.9305 71.6667 51.5416 75.6778 54.2166 78.5389C54.7583 78.9167 55.111 79.5417 55.111 80.25C55.111 81.4 54.1777 82.3334 53.0277 82.3334Z" fill="black"/>
<path d="M63.4444 40.6667C58.0833 40.6667 53.7222 36.3056 53.7222 30.9445C53.7222 25.5833 58.0833 21.2222 63.4444 21.2222C68.8055 21.2222 73.1666 25.5833 73.1666 30.9445C73.1666 36.3056 68.8055 40.6667 63.4444 40.6667ZM63.4444 25.3889C60.3805 25.3889 57.8888 27.8806 57.8888 30.9445C57.8888 34.0083 60.3805 36.5 63.4444 36.5C66.5083 36.5 69 34.0083 69 30.9445C69 27.8806 66.5083 25.3889 63.4444 25.3889Z" fill="black"/>
<path d="M61.3611 36.5H65.5277V46.2222H61.3611V36.5Z" fill="black"/>
<path d="M61.3611 15.6667H65.5277V25.3889H61.3611V15.6667Z" fill="black"/>
<path d="M67.2604 26.2522L76.1294 21.506L78.0947 25.1786L69.2257 29.9248L67.2604 26.2522Z" fill="black"/>
<path d="M48.8456 36.6523L57.7145 31.9061L59.6799 35.5786L50.8109 40.3249L48.8456 36.6523Z" fill="black"/>
<path d="M48.8517 25.2177L50.817 21.5451L59.686 26.2914L57.7207 29.9639L48.8517 25.2177Z" fill="black"/>
<path d="M67.2767 35.6083L69.2421 31.9358L78.1111 36.682L76.1457 40.3545L67.2767 35.6083Z" fill="black"/>
<path d="M43.2778 57.3333H26.7778C22.4889 57.3333 19 53.9694 19 49.8333C19 46.2139 21.6722 43.1861 25.2111 42.4833C26.6139 38.1833 30.8417 35.1111 35.6667 35.1111C38.7389 35.1111 41.6805 36.35 43.7333 38.5111L40.7111 41.3805C39.4417 40.0444 37.6028 39.2778 35.6667 39.2778C32.3 39.2778 29.4139 41.6194 28.95 44.725C28.7944 45.7444 27.9194 46.5 26.8889 46.5C24.7861 46.5 23.1667 47.9944 23.1667 49.8333C23.1667 51.6722 24.7861 53.1666 26.7778 53.1666H43.2778C45.975 53.1666 48.1667 51.1361 48.1667 48.6389C48.1667 48.2639 48.1278 47.9611 48.05 47.6778L52.0583 46.5444C52.2444 47.1972 52.3333 47.8833 52.3333 48.6389C52.3333 53.4333 48.2722 57.3333 43.2778 57.3333Z" fill="black"/>
</svg>
