<svg width="98" height="88" viewBox="0 0 98 88" fill="none" xmlns="http://www.w3.org/2000/svg">
<path d="M87.425 17.2695C87.425 36.4833 97.3778 49.6778 97.3778 58.9361C97.3778 68.1945 92.0556 87.6389 49.4639 87.6389C6.87225 87.6389 0.619476 61.4806 0.619476 51.2972C0.619476 3.61113 87.425 -16.7583 87.425 17.2695Z" fill="#EFEFEF"/>
<path d="M8.71388 10.6667C7.79444 10.6667 6.90277 10.3639 6.16388 9.78887C5.2861 9.10554 4.72499 8.11943 4.58888 7.01665C4.44999 5.91387 4.74999 4.82221 5.43333 3.94165C6.11666 3.06387 7.10277 2.50276 8.20555 2.36665C9.30277 2.22221 10.4 2.52776 11.2805 3.2111C12.1611 3.89443 12.7194 4.88054 12.8555 5.98332C12.9944 7.0861 12.6917 8.18054 12.0111 9.05832C11.3278 9.9361 10.3417 10.4972 9.23888 10.6333C9.06388 10.6555 8.88888 10.6667 8.71388 10.6667ZM8.72222 5.1111C8.66388 5.1111 8.60833 5.11387 8.54999 5.12221C7.79166 5.21665 7.24999 5.91387 7.34444 6.67221C7.43888 7.43054 8.13055 7.96943 8.89444 7.87776C9.65277 7.78332 10.1944 7.0861 10.1 6.32776C10.0111 5.62776 9.41388 5.1111 8.72222 5.1111Z" fill="#A4AFC1"/>
<path d="M74.6944 69.6945H23.3056C20.2361 69.6945 17.75 67.2084 17.75 64.1389V22.4722H80.25V64.1389C80.25 67.2084 77.7639 69.6945 74.6944 69.6945Z" fill="#F3F3F1"/>
<path d="M80.25 22.4722H17.75V18.3056C17.75 15.2361 20.2361 12.75 23.3056 12.75H74.6944C77.7639 12.75 80.25 15.2361 80.25 18.3056V22.4722Z" fill="#EE4248"/>
<path d="M64.2778 75.25C73.099 75.25 80.25 68.099 80.25 59.2778C80.25 50.4566 73.099 43.3055 64.2778 43.3055C55.4566 43.3055 48.3055 50.4566 48.3055 59.2778C48.3055 68.099 55.4566 75.25 64.2778 75.25Z" fill="#EE4248"/>
<path d="M69.1389 32.1945H28.8611V44.6945H69.1667L69.1389 32.1945Z" fill="#EE4248"/>
<path d="M29.5556 12.75H23.3056C20.2361 12.75 17.75 15.2361 17.75 18.3056V22.4722H24V18.3056C24 15.2361 26.4861 12.75 29.5556 12.75Z" fill="#EE4248"/>
<path d="M54.5555 59.2778C54.5555 51.5278 60.0778 45.0694 67.4028 43.6167C66.3917 43.4167 65.3472 43.3055 64.2778 43.3055C55.4555 43.3055 48.3055 50.4555 48.3055 59.2778C48.3055 68.1 55.4555 75.25 64.2778 75.25C65.3472 75.25 66.3917 75.1417 67.4028 74.9389C60.0778 73.4861 54.5555 67.0278 54.5555 59.2778Z" fill="#EE4248"/>
<path d="M28.8611 32.1945H35.1111V44.6945H28.8611V32.1945Z" fill="#EE4248"/>
<path d="M24 64.1389V22.4722H17.75V64.1389C17.75 67.2084 20.2361 69.6945 23.3056 69.6945H29.5556C26.4861 69.6945 24 67.2084 24 64.1389Z" fill="#D5DBE1"/>
<path d="M64.2777 77.3333C54.3222 77.3333 46.2222 69.2333 46.2222 59.2778C46.2222 49.3222 54.3222 41.2222 64.2777 41.2222C74.2333 41.2222 82.3333 49.3222 82.3333 59.2778C82.3333 69.2333 74.2333 77.3333 64.2777 77.3333ZM64.2777 45.3889C56.6194 45.3889 50.3888 51.6194 50.3888 59.2778C50.3888 66.9361 56.6194 73.1667 64.2777 73.1667C71.9361 73.1667 78.1666 66.9361 78.1666 59.2778C78.1666 51.6194 71.9361 45.3889 64.2777 45.3889Z" fill="black"/>
<path d="M61.5 66.9167C60.9472 66.9167 60.4166 66.6972 60.0277 66.3056L54.4722 60.75L57.4194 57.8028L61.4 61.7833L69.6555 52.35L72.7916 55.0944L63.0694 66.2056C62.6888 66.6389 62.1472 66.8972 61.5694 66.9167C61.5472 66.9167 61.5222 66.9167 61.5 66.9167Z" fill="black"/>
<path d="M44.8612 46.7777H28.8612C27.7112 46.7777 26.7778 45.8444 26.7778 44.6944V32.1944C26.7778 31.0444 27.7112 30.1111 28.8612 30.1111H69.139C70.289 30.1111 71.2223 31.0444 71.2223 32.1944V35.4722H67.0556V34.2778H30.9445V42.6111H44.8612V46.7777Z" fill="black"/>
<path d="M26.9167 50.9167H42.8889V55.0833H26.9167V50.9167Z" fill="black"/>
<path d="M26.9167 59.25H42.1667V63.4167H26.9167V59.25Z" fill="black"/>
<path d="M42.3055 71.7778H23.3055C19.0916 71.7778 15.6666 68.3528 15.6666 64.1389V18.3056C15.6666 14.0917 19.0916 10.6667 23.3055 10.6667H74.6944C78.9083 10.6667 82.3333 14.0917 82.3333 18.3056V41H78.1666V18.3056C78.1666 16.3917 76.6083 14.8334 74.6944 14.8334H23.3055C21.3916 14.8334 19.8333 16.3917 19.8333 18.3056V64.1389C19.8333 66.0528 21.3916 67.6111 23.3055 67.6111H42.3055V71.7778Z" fill="black"/>
<path d="M17.75 20.3889H80.25V24.5556H17.75V20.3889Z" fill="black"/>
</svg>
